<?xml version="1.0" standalone="no"?>
<!DOCTYPE svg PUBLIC "-//W3C//DTD SVG 20010904//EN"
 "http://www.w3.org/TR/2001/REC-SVG-20010904/DTD/svg10.dtd">
<svg version="1.0" xmlns="http://www.w3.org/2000/svg"
 width="512.000000pt" height="512.000000pt" viewBox="0 0 512.000000 512.000000"
 preserveAspectRatio="xMidYMid meet">

<g transform="translate(0.000000,512.000000) scale(0.100000,-0.100000)"
fill="#000000" stroke="none">
<path d="M2370 5113 c-310 -29 -539 -84 -803 -193 -526 -216 -984 -630 -1261
-1140 -166 -303 -262 -619 -301 -986 l-7 -61 454 -188 c249 -104 557 -232 685
-285 l232 -96 88 42 c91 44 206 74 290 74 l48 1 313 459 312 459 0 59 c0 117
35 252 101 386 140 282 404 475 722 526 101 17 277 8 380 -19 332 -87 591
-342 694 -686 24 -82 27 -106 27 -255 0 -142 -3 -177 -23 -250 -109 -406 -461
-702 -863 -727 l-97 -6 -443 -319 -443 -318 -7 -72 c-11 -107 -33 -183 -80
-278 -34 -69 -58 -102 -132 -175 -74 -74 -107 -99 -176 -132 -47 -23 -114 -49
-150 -59 -79 -20 -231 -23 -315 -5 -240 52 -441 233 -521 469 -12 35 -26 68
-30 72 -13 13 -947 400 -952 395 -7 -7 44 -147 96 -265 322 -734 960 -1273
1733 -1464 489 -121 1003 -94 1488 77 229 81 518 242 724 404 40 31 140 124
222 207 224 225 345 395 485 681 122 247 200 505 242 800 17 118 17 512 0 630
-66 463 -232 869 -505 1235 -92 122 -365 395 -487 487 -465 347 -1010 528
-1570 521 -74 0 -151 -3 -170 -5z"/>
<path d="M3308 3849 c-147 -16 -267 -76 -378 -188 -204 -206 -248 -506 -113
-764 44 -83 161 -208 237 -252 125 -72 273 -103 408 -85 252 35 455 204 535
444 23 69 27 98 27 201 0 106 -3 130 -28 200 -105 303 -377 478 -688 444z
m221 -178 c233 -72 380 -324 330 -563 -29 -137 -127 -268 -246 -330 -93 -48
-157 -62 -265 -56 -79 5 -99 10 -171 46 -297 147 -369 532 -145 768 101 107
205 153 350 153 58 1 106 -5 147 -18z"/>
<path d="M1710 2114 c-69 -11 -130 -26 -130 -32 0 -4 76 -38 168 -76 240 -98
299 -143 360 -274 24 -50 27 -69 27 -162 0 -98 -2 -110 -32 -171 -42 -85 -111
-154 -193 -193 -60 -29 -73 -31 -170 -31 l-105 0 -174 73 c-95 40 -176 71
-179 68 -9 -10 68 -115 118 -159 164 -148 409 -179 610 -79 70 35 163 121 212
196 73 114 102 264 74 396 -52 250 -248 424 -501 443 -33 3 -71 3 -85 1z"/>
</g>
</svg>
