<?xml version="1.0" standalone="no"?>
<!DOCTYPE svg PUBLIC "-//W3C//DTD SVG 20010904//EN"
 "http://www.w3.org/TR/2001/REC-SVG-20010904/DTD/svg10.dtd">
<svg version="1.0" xmlns="http://www.w3.org/2000/svg"
 width="2000.000000pt" height="2000.000000pt" viewBox="0 0 2000.000000 2000.000000"
 preserveAspectRatio="xMidYMid meet">

<g transform="translate(0.000000,2000.000000) scale(0.100000,-0.100000)"
fill="#000000" stroke="none">
<path d="M9680 19553 c-1332 -29 -2680 -370 -3950 -999 -1066 -527 -1989
-1223 -2701 -2034 -762 -870 -1321 -1779 -1734 -2820 -279 -702 -470 -1413
-574 -2130 -112 -774 -119 -1607 -20 -2400 194 -1558 850 -3183 1800 -4460
488 -657 981 -1156 1664 -1687 1285 -996 2855 -1665 4445 -1893 484 -69 716
-85 1280 -85 477 0 563 4 930 41 1173 117 2426 511 3535 1110 837 451 1651
1068 2209 1673 999 1083 1678 2232 2129 3606 591 1800 606 3697 43 5510 -173
559 -328 930 -620 1490 -539 1035 -1238 1989 -1882 2572 -1057 956 -2188 1616
-3514 2051 -985 324 -2018 478 -3040 455z m4495 -5612 c28 -14 81 -55 118 -92
115 -114 153 -230 144 -436 -4 -108 -68 -414 -771 -3723 -421 -1983 -778
-3651 -792 -3707 -106 -428 -321 -562 -684 -424 -126 48 -12 -34 -2045 1475
-214 159 -394 289 -401 290 -6 1 -258 -237 -559 -529 -301 -291 -582 -556
-624 -587 -128 -97 -288 -168 -378 -168 -18 0 -33 5 -33 10 0 17 180 2323 183
2342 1 9 457 432 1012 940 556 508 1529 1397 2163 1976 633 579 1159 1066
1167 1082 36 70 6 103 -98 108 -67 3 -77 1 -147 -35 -41 -22 -739 -458 -1550
-969 -2833 -1785 -3821 -2406 -3838 -2411 -10 -2 -535 154 -1168 347 -632 193
-1186 362 -1230 376 -104 31 -195 90 -230 151 -71 120 -1 279 172 393 100 66
167 93 989 410 402 155 984 380 1295 500 311 120 1011 390 1555 600 545 210
1661 641 2480 957 820 316 1744 673 2055 793 311 120 619 239 685 265 210 81
267 95 380 92 82 -2 109 -6 150 -26z"/>
</g>
</svg>
