<?xml version="1.0" standalone="no"?>
<!DOCTYPE svg PUBLIC "-//W3C//DTD SVG 20010904//EN"
 "http://www.w3.org/TR/2001/REC-SVG-20010904/DTD/svg10.dtd">
<svg version="1.0" xmlns="http://www.w3.org/2000/svg"
 width="225.000000pt" height="224.000000pt" viewBox="0 0 225.000000 224.000000"
 preserveAspectRatio="xMidYMid meet">

<g transform="translate(0.000000,224.000000) scale(0.100000,-0.100000)"
fill="#000000" stroke="none">
<path d="M405 2228 c-79 -15 -184 -71 -244 -130 -68 -66 -104 -122 -133 -207
l-23 -66 0 -705 0 -705 23 -66 c53 -155 166 -268 321 -321 l66 -23 710 0 710
0 65 23 c85 29 129 57 196 122 60 59 102 126 130 210 18 52 19 98 19 760 l0
705 -23 66 c-29 85 -65 141 -133 207 -63 62 -166 115 -253 131 -75 14 -1359
13 -1431 -1z m643 -788 l113 -151 131 151 131 150 80 0 80 0 -20 -22 c-50 -57
-299 -345 -312 -361 -12 -16 5 -43 181 -275 107 -141 198 -263 202 -269 6 -10
-27 -13 -152 -13 l-159 0 -125 164 -125 165 -143 -165 -143 -164 -80 0 c-75 0
-79 1 -65 18 45 53 306 352 329 377 l28 30 -194 254 c-107 140 -195 256 -195
258 0 1 73 3 163 3 l162 0 113 -150z"/>
<path d="M802 1491 c2 -5 129 -173 283 -375 l280 -366 43 0 43 0 -283 375
-283 375 -43 0 c-24 0 -42 -4 -40 -9z"/>
</g>
</svg>
