<?xml version="1.0" standalone="no"?>
<!DOCTYPE svg PUBLIC "-//W3C//DTD SVG 20010904//EN"
 "http://www.w3.org/TR/2001/REC-SVG-20010904/DTD/svg10.dtd">
<svg version="1.0" xmlns="http://www.w3.org/2000/svg"
 width="256.000000pt" height="256.000000pt" viewBox="0 0 256.000000 256.000000"
 preserveAspectRatio="xMidYMid meet">

<g transform="translate(0.000000,256.000000) scale(0.100000,-0.100000)"
fill="#000000" stroke="none">
<path d="M640 2159 c-210 -11 -360 -33 -416 -60 -59 -30 -119 -91 -149 -153
-33 -67 -52 -202 -67 -460 -18 -331 11 -749 62 -863 44 -100 120 -162 230
-187 278 -64 1635 -67 1950 -5 111 22 191 84 236 184 54 118 85 534 66 882
-19 344 -45 452 -129 538 -81 82 -191 107 -548 125 -240 12 -990 11 -1235 -1z
m709 -680 c174 -100 321 -187 328 -193 9 -8 -69 -58 -310 -196 -177 -102 -327
-186 -334 -188 -10 -3 -13 73 -13 377 0 210 3 381 6 381 4 0 149 -82 323 -181z"/>
</g>
</svg>
